name Walk10_EMG.mot
datacolumns 17
datarows 22
range 3.05300000 3.07400000
endheader
                time	            vasmed_r	            vaslat_r	            recfem_r	               gra_r	               sar_r	            tibant_r	           perlong_r	            addmag_r	           semimem_r	          bicfemlh_r	            gasmed_r	            gaslat_r	               sol_r	               tfl_r	              gmed_r	              gmax_r	
          3.05300000	          0.31386521	          0.63608842	          0.50372279	          0.20371620	          0.97682068	          0.10257578	          0.06550320	          0.98658379	          0.06573801	          0.12602450	          0.37964834	          0.33515709	          0.58377288	          0.24859064	          0.64173704	          0.23339866	
          3.05400000	          0.31113403	          0.64656381	          0.49174453	          0.20242408	          0.97630177	          0.10208999	          0.05840914	          0.98994584	          0.06441821	          0.12500300	          0.38336470	          0.33829027	          0.58957883	          0.24645875	          0.63772997	          0.23399997	
          3.05500000	          0.30832435	          0.65757205	          0.47990849	          0.20105704	          0.97567896	          0.10154885	          0.05186368	          0.99235843	          0.06319335	          0.12416466	          0.38699623	          0.34135282	          0.59511748	          0.24465052	          0.63410944	          0.23495344	
          3.05600000	          0.30544608	          0.66902827	          0.46825875	          0.19961254	          0.97495771	          0.10095091	          0.04586367	          0.99386473	          0.06206337	          0.12350662	          0.39053424	          0.34433438	          0.60037062	          0.24316651	          0.63085745	          0.23624903	
          3.05700000	          0.30250928	          0.68084324	          0.45683472	          0.19809022	          0.97414079	          0.10029500	          0.04040454	          0.99453250	          0.06102876	          0.12302412	          0.39397093	          0.34722961	          0.60532097	          0.24200248	          0.62795842	          0.23787702	
          3.05800000	          0.29952434	          0.69292382	          0.44566984	          0.19649296	          0.97323040	          0.09958024	          0.03548073	          0.99444622	          0.06009003	          0.12271081	          0.39729652	          0.35003619	          0.60995003	          0.24115077	          0.62539943	          0.23983212	
          3.05900000	          0.29650175	          0.70517377	          0.43479319	          0.19482710	          0.97222801	          0.09880603	          0.03108643	          0.99369972	          0.05924748	          0.12255925	          0.40049830	          0.35275160	          0.61423696	          0.24060212	          0.62316670	          0.24211533	
          3.06000000	          0.29345174	          0.71749541	          0.42423119	          0.19310115	          0.97113264	          0.09797215	          0.02721558	          0.99238876	          0.05850123	          0.12256154	          0.40356103	          0.35537131	          0.61815916	          0.24034759	          0.62124371	          0.24473067	
          3.06100000	          0.29038378	          0.72979095	          0.41400816	          0.19132463	          0.96993843	          0.09707905	          0.02386179	          0.99060482	          0.05785095	          0.12270961	          0.40646828	          0.35788893	          0.62169331	          0.24037915	          0.61961157	          0.24768107	
          3.06200000	          0.28730620	          0.74196321	          0.40414708	          0.18950836	          0.96863389	          0.09612812	          0.02101869	          0.98843039	          0.05729582	          0.12299509	          0.40920440	          0.36029674	          0.62481674	          0.24068869	          0.61824932	          0.25096792	
          3.06300000	          0.28422599	          0.75391644	          0.39467080	          0.18766507	          0.96720493	          0.09512181	          0.01867952	          0.98593617	          0.05683439	          0.12340913	          0.41175550	          0.36258664	          0.62750842	          0.24126617	          0.61713421	          0.25459195	
          3.06400000	          0.28114895	          0.76555816	          0.38560202	          0.18580846	          0.96564054	          0.09406401	          0.01683625	          0.98318234	          0.05646451	          0.12394226	          0.41410898	          0.36475200	          0.62974882	          0.24209855	          0.61624157	          0.25855182	
          3.06500000	          0.27808001	          0.77680163	          0.37696121	          0.18395166	          0.96393668	          0.09295996	          0.01547972	          0.98022381	          0.05618317	          0.12458463	          0.41625279	          0.36678852	          0.63151983	          0.24317071	          0.61554416	          0.26284154	
          3.06600000	          0.27502296	          0.78756753	          0.36876481	          0.18210692	          0.96209577	          0.09181555	          0.01460061	          0.97711142	          0.05598676	          0.12532654	          0.41817502	          0.36869282	          0.63280526	          0.24446708	          0.61501146	          0.26744957	
          3.06700000	          0.27198042	          0.79778335	          0.36102525	          0.18028603	          0.96012365	          0.09063655	          0.01418961	          0.97388682	          0.05587138	          0.12615913	          0.41986374	          0.37046115	          0.63359084	          0.24597215	          0.61461040	          0.27236006	
          3.06800000	          0.26895432	          0.80738159	          0.35375190	          0.17850033	          0.95802603	          0.08942843	          0.01423708	          0.97057936	          0.05583284	          0.12707545	          0.42130761	          0.37208961	          0.63386469	          0.24767025	          0.61430983	          0.27755370	
          3.06900000	          0.26594645	          0.81629845	          0.34695215	          0.17675991	          0.95580513	          0.08819653	          0.01473296	          0.96720994	          0.05586659	          0.12807181	          0.42249682	          0.37357445	          0.63361893	          0.24954516	          0.61408693	          0.28300742	
          3.07000000	          0.26295891	          0.82447376	          0.34063261	          0.17507267	          0.95345728	          0.08694604	          0.01566638	          0.96379642	          0.05596782	          0.12914771	          0.42342344	          0.37491199	          0.63285048	          0.25157930	          0.61392905	          0.28869453	
          3.07100000	          0.25999416	          0.83185374	          0.33479882	          0.17344446	          0.95097157	          0.08568167	          0.01702469	          0.96035501	          0.05613153	          0.13030439	          0.42408069	          0.37609993	          0.63155932	          0.25375322	          0.61382890	          0.29458531	
          3.07200000	          0.25705460	          0.83839525	          0.32945359	          0.17188025	          0.94832992	          0.08440760	          0.01879285	          0.95689993	          0.05635255	          0.13154308	          0.42446232	          0.37713911	          0.62974641	          0.25604615	          0.61377823	          0.30064687	
          3.07300000	          0.25414251	          0.84406704	          0.32459728	          0.17038487	          0.94550856	          0.08312741	          0.02095359	          0.95344416	          0.05662580	          0.13286340	          0.42456263	          0.37803254	          0.62741348	          0.25843656	          0.61376567	          0.30684320	
          3.07400000	          0.25126073	          0.84884719	          0.32022938	          0.16896267	          0.94248158	          0.08184426	          0.02348775	          0.94999985	          0.05694640	          0.13426292	          0.42437780	          0.37878245	          0.62456407	          0.26090216	          0.61377847	          0.31313551	
